<!DOCTYPE svg PUBLIC "-//W3C//DTD SVG 20010904//EN" "http://www.w3.org/TR/2001/REC-SVG-20010904/DTD/svg10.dtd">
<svg version="1.0" xmlns="http://www.w3.org/2000/svg" width="499px" height="92px" viewBox="0 0 4990 920" preserveAspectRatio="xMidYMid meet">
<g id="layer101" fill="#ffffff" stroke="none">
 <path d="M2435 809 c-46 -13 -101 -64 -126 -116 -18 -38 -23 -65 -23 -123 0 -90 22 -140 85 -194 49 -41 83 -50 171 -42 34 3 105 5 156 5 l92 0 0 235 0 236 -80 0 c-44 0 -80 -4 -80 -9 0 -6 -16 -3 -35 5 -38 15 -113 17 -160 3z m145 -154 c38 -20 57 -74 40 -116 -27 -64 -92 -78 -141 -30 -33 33 -37 67 -14 111 26 50 64 62 115 35z"/>
 <path d="M3045 811 c-69 -17 -134 -69 -154 -124 -7 -17 -11 -126 -11 -278 l0 -249 85 0 85 0 0 219 c0 121 3 227 6 236 10 25 62 48 93 40 61 -15 61 -16 61 -267 l0 -228 90 0 90 0 0 243 c0 234 -1 244 -24 293 -27 57 -66 90 -133 110 -49 15 -138 17 -188 5z"/>
 <path d="M3683 806 c-18 -8 -33 -11 -33 -6 0 6 -36 10 -80 10 l-80 0 0 -325 0 -325 80 0 80 0 0 96 c0 88 1 95 18 88 9 -4 49 -10 89 -12 85 -4 125 11 177 69 100 110 77 305 -44 385 -50 33 -156 43 -207 20z m98 -146 c24 -13 49 -61 49 -95 0 -16 -12 -38 -29 -56 -49 -48 -114 -34 -141 30 -31 75 51 158 121 121z"/>
 <path d="M4204 806 c-126 -40 -190 -173 -149 -312 20 -70 82 -137 142 -153 60 -17 163 -13 209 8 85 39 141 142 132 246 l-3 40 -155 5 -155 5 39 18 c36 17 42 17 80 3 23 -9 49 -16 58 -16 19 0 105 47 115 63 11 17 -72 83 -121 96 -58 14 -140 13 -192 -3z m156 -295 c0 -15 -42 -41 -67 -41 -12 0 -35 11 -50 25 l-28 24 73 1 c39 0 72 -4 72 -9z"/>
 <path d="M95 798 c-3 -7 -6 -95 -8 -196 -3 -183 -3 -183 -28 -195 -38 -20 -33 -59 10 -71 27 -8 36 -7 46 7 10 14 14 11 24 -26 18 -60 61 -136 85 -150 29 -16 443 -16 472 0 24 14 67 90 85 150 10 37 14 40 24 26 10 -14 19 -15 46 -7 46 13 52 47 12 67 l-28 15 -3 178 c-1 99 -5 187 -8 197 -5 15 -14 17 -52 15 -46 -3 -47 -3 -50 -40 l-3 -38 -259 0 -259 0 -3 38 c-3 37 -3 37 -51 40 -32 2 -49 -1 -52 -10z m199 -296 c9 -15 -8 -29 -73 -62 -61 -30 -65 -31 -78 -14 -7 10 -13 23 -13 29 0 18 23 43 45 48 34 8 114 7 119 -1z m453 -3 c44 -16 55 -45 28 -73 -14 -13 -19 -13 -53 1 -49 20 -104 62 -97 74 8 12 87 11 122 -2z m-17 -131 c0 -2 -7 -25 -15 -51 -9 -30 -30 -65 -57 -92 l-43 -45 -155 0 -155 0 -41 43 c-31 33 -74 115 -74 144 0 2 122 3 270 3 149 0 270 -1 270 -2z"/>
 <path d="M1160 485 l0 -325 148 0 c81 0 164 5 186 11 102 28 171 148 148 258 -26 122 -107 181 -249 181 l-63 0 0 100 0 100 -85 0 -85 0 0 -325z m269 -40 c46 -23 55 -71 21 -105 -15 -15 -33 -20 -70 -20 l-50 0 0 70 0 70 35 0 c20 0 49 -7 64 -15z"/>
 <path d="M1710 575 l0 -235 80 0 80 0 0 235 0 235 -80 0 -80 0 0 -235z"/>
 <path d="M1970 575 l0 -235 79 0 c46 0 81 4 83 10 2 7 16 5 40 -5 21 -8 49 -15 63 -15 24 0 25 2 25 69 0 38 2 76 6 84 4 11 -6 16 -38 20 -31 4 -51 14 -70 37 -27 29 -28 34 -28 150 l0 120 -80 0 -80 0 0 -235z"/>
 <path d="M4610 575 l0 -235 79 0 c46 0 81 4 83 10 2 7 16 5 40 -5 21 -8 49 -15 63 -15 24 0 25 2 25 69 0 38 2 76 6 84 4 11 -6 16 -38 20 -31 4 -51 14 -70 37 -27 29 -28 34 -28 150 l0 120 -80 0 -80 0 0 -235z"/>
 <path d="M1722 300 c-65 -60 -25 -160 64 -160 64 0 94 29 94 90 0 41 -4 52 -26 69 -36 28 -102 28 -132 1z"/>
 </g>

</svg>